<svg width="73" height="83" viewBox="0 0 73 83" fill="none" xmlns="http://www.w3.org/2000/svg">
<path d="M24.4268 56.4435C24.579 56.8564 24.7547 57.2609 24.9531 57.6554V57.6564C25.1138 57.9775 25.2886 58.2904 25.4773 58.5952H47.492V58.6373C47.6916 58.3192 47.8753 57.9915 48.0428 57.6545C48.2417 57.2605 48.4174 56.8562 48.5691 56.4435H24.4268ZM24.9818 57.6427V57.4469H48.0172V57.6427H24.9818ZM26.6977 60.2408H46.2982C46.7002 59.7838 47.0667 59.2992 47.3947 58.791H25.6012C25.9292 59.2992 26.2957 59.7838 26.6977 60.2408V60.2408Z" fill="#0B114D"/>
<path d="M48.9131 55.3452C48.8343 55.6516 48.7421 55.9521 48.6387 56.2477H24.3572C24.2538 55.9521 24.1617 55.6516 24.0828 55.3452H48.9131Z" fill="#3F3D56"/>
<path d="M48.9285 55.2874V55.1494H24.0675V55.2874C23.9804 54.9467 23.9084 54.5999 23.8514 54.2468H49.1445C49.0882 54.5992 49.0162 54.9461 48.9285 55.2874Z" fill="#0B114D"/>
<path d="M23.8064 52.9527V53.1485H49.2684C49.2489 53.4529 49.2182 53.7534 49.1742 54.051H23.8218C23.7788 53.7554 23.747 53.4558 23.7286 53.1524C23.7102 52.8959 23.702 52.6375 23.702 52.3761C23.702 52.1999 23.7061 52.0246 23.7132 51.8504V51.8484C23.7306 51.4774 23.7641 51.1113 23.8136 50.7501V50.7491C23.8566 50.4466 23.9101 50.1477 23.9743 49.8524H48.9807V49.6742C49.0646 50.0286 49.1315 50.3888 49.1813 50.7549H23.8586V50.9507H49.2069C49.2407 51.2239 49.2646 51.4993 49.2786 51.777L49.2817 51.8533H23.833V52.0491H49.2888C49.2929 52.1578 49.294 52.2664 49.294 52.3761C49.294 52.5699 49.2888 52.7618 49.2796 52.9527H23.8064Z" fill="#0B114D"/>
<path d="M48.9765 49.6566H24.0193C24.092 49.3511 24.1763 49.0503 24.2722 48.754H48.7196V48.7432C48.8178 49.0428 48.9028 49.3472 48.9765 49.6566Z" fill="#3F3D56"/>
<path d="M48.6581 48.5582H24.3378C24.4647 48.1862 24.6098 47.8227 24.7729 47.4677V47.6547H48.223V47.4687C48.3858 47.823 48.5308 48.1862 48.6581 48.5582Z" fill="#0B114D"/>
<path d="M48.2179 47.4589H24.777C24.9183 47.1515 25.0729 46.8506 25.2408 46.5563H47.7275V46.5074C47.9056 46.8167 48.0691 47.1339 48.2179 47.4589Z" fill="#3F3D56"/>
<path d="M47.6414 46.3605H25.3534C26.4684 44.473 28.0877 42.9026 30.0458 41.8098C32.0038 40.7171 34.2303 40.1413 36.4974 40.1413C38.7646 40.1413 40.9911 40.7171 42.9491 41.8098C44.9072 42.9026 46.5265 44.473 47.6414 46.3605V46.3605Z" fill="#3F3D56"/>
<path opacity="0.5" d="M24.0675 55.2874C24.0716 55.3069 24.0769 55.3262 24.0833 55.3451H24.0675V55.2874Z" fill="black"/>
<path opacity="0.5" d="M48.9288 55.2874V55.3451H48.9131C48.9194 55.3262 48.9247 55.3069 48.9288 55.2874V55.2874Z" fill="black"/>
<path opacity="0.5" d="M49.2947 52.9526V53.1484H49.2683C49.2704 53.1239 49.2725 53.0995 49.2736 53.075C49.2757 53.0339 49.2778 52.9938 49.2799 52.9526H49.2947Z" fill="black"/>
<path opacity="0.5" d="M49.294 51.8533V52.0491H49.2888C49.2878 51.9835 49.2847 51.9189 49.2817 51.8533H49.294Z" fill="black"/>
<path opacity="0.5" d="M48.9808 49.6566V49.6742C48.9797 49.6683 48.9776 49.6624 48.9765 49.6566H48.9808Z" fill="black"/>
<path opacity="0.5" d="M24.7729 47.4589H24.7771C24.7762 47.462 24.7747 47.4649 24.7729 47.4677V47.4589Z" fill="black"/>
<path opacity="0.5" d="M48.2235 47.4589V47.4687C48.2219 47.4653 48.22 47.462 48.2179 47.4589H48.2235Z" fill="black"/>
<path opacity="0.5" d="M46.9175 45.2618H26.0784V45.4576H46.9175V45.2618Z" fill="black"/>
<path opacity="0.5" d="M46.108 44.1632H26.9401V44.359H46.108V44.1632Z" fill="black"/>
<path opacity="0.5" d="M44.8806 43.0646H28.1153V43.2604H44.8806V43.0646Z" fill="black"/>
<path opacity="0.5" d="M43.3397 41.9654L29.3947 41.9915L29.3951 42.1872L43.3401 42.1612L43.3397 41.9654Z" fill="black"/>
<path d="M34.6426 45.9474H28.5319V58.8936H34.6426V45.9474Z" fill="#E6E6E6"/>
<path d="M31.3273 47.1664H31.586C31.9672 47.1664 32.3329 47.3112 32.6025 47.5689C32.872 47.8267 33.0235 48.1763 33.0235 48.5408V50.487H29.8898V48.5408C29.8898 48.1763 30.0412 47.8267 30.3108 47.5689C30.5804 47.3112 30.946 47.1664 31.3273 47.1664V47.1664Z" fill="#0B114D"/>
<path d="M42.5042 45.8342C42.9198 45.8342 43.3183 45.992 43.6122 46.273C43.906 46.5539 44.0711 46.935 44.0711 47.3323V49.7792H40.9373V47.3323C40.9373 46.935 41.1024 46.5539 41.3963 46.273C41.6901 45.992 42.0887 45.8342 42.5042 45.8342Z" fill="#E6E6E6"/>
<path d="M48.4582 50.8279C48.4583 50.9447 48.4515 51.0614 48.4379 51.1775H36.4979V50.5283H48.4431C48.453 50.6276 48.4581 50.7275 48.4582 50.8279Z" fill="#E6E6E6"/>
<path d="M38.2114 48.6364L38.3274 48.4649C38.293 48.374 38.2533 48.285 38.2084 48.1984L38.1333 48.2563L38.1927 48.1685C38.1361 48.0619 38.0915 47.9948 38.0915 47.9948C37.9486 48.2181 37.8437 48.4619 37.781 48.7168L37.9299 48.9369L37.7651 48.8096C37.7592 48.8529 37.7562 48.8964 37.756 48.94C37.756 49.3798 37.9062 49.7364 38.0915 49.7364C38.2769 49.7364 38.4271 49.3798 38.4271 48.94C38.4236 48.8001 38.3977 48.6615 38.3503 48.5291L38.2114 48.6364Z" fill="#00EBA9"/>
<path d="M39.0329 49.0177L39.2418 48.9749C39.2847 48.8873 39.3224 48.7975 39.3547 48.7059L39.2588 48.6961L39.3658 48.6742C39.4046 48.5605 39.4227 48.4829 39.4227 48.4829C39.1564 48.5442 38.902 48.6457 38.6691 48.7835L38.6117 49.0399L38.5892 48.8384C38.5531 48.865 38.5187 48.8937 38.4864 48.9245C38.1611 49.2355 38.0037 49.5892 38.1347 49.7145C38.2657 49.8398 38.6356 49.6892 38.9609 49.3782C39.0619 49.2769 39.1461 49.1614 39.2105 49.0357L39.0329 49.0177Z" fill="#00EBA9"/>
<path d="M39.1092 50.7195C38.6248 50.7491 38.0969 50.7177 37.5354 50.7195V49.4902C38.0574 49.5601 38.5871 49.5601 39.1092 49.4902V50.7195Z" fill="#E6E6E6"/>
<path d="M46.0979 48.6364L46.214 48.4649C46.1795 48.374 46.1398 48.285 46.0949 48.1984L46.0198 48.2563L46.0792 48.1685C46.0226 48.0619 45.978 47.9948 45.978 47.9948C45.8351 48.2181 45.7302 48.4619 45.6675 48.7168L45.8164 48.9369L45.6515 48.8096C45.6457 48.8529 45.6427 48.8964 45.6425 48.94C45.6425 49.3798 45.7927 49.7364 45.978 49.7364C46.1634 49.7364 46.3136 49.3798 46.3136 48.94C46.3101 48.8001 46.2842 48.6615 46.2368 48.5291L46.0979 48.6364Z" fill="#00EBA9"/>
<path d="M46.9194 49.0177L47.1283 48.9749C47.1712 48.8873 47.2089 48.7975 47.2412 48.7059L47.1453 48.6961L47.2523 48.6742C47.2911 48.5605 47.3092 48.4829 47.3092 48.4829C47.0429 48.5442 46.7885 48.6457 46.5556 48.7835L46.4982 49.0399L46.4757 48.8384C46.4396 48.865 46.4052 48.8937 46.3729 48.9245C46.0476 49.2355 45.8902 49.5892 46.0212 49.7145C46.1522 49.8398 46.5221 49.6892 46.8474 49.3782C46.9484 49.2769 47.0326 49.1614 47.097 49.0357L46.9194 49.0177Z" fill="#00EBA9"/>
<path d="M46.9957 50.7195C46.5113 50.7491 45.9834 50.7177 45.4219 50.7195V49.4902C45.9439 49.5601 46.4737 49.5601 46.9957 49.4902V50.7195Z" fill="#E6E6E6"/>
<path d="M29.263 53.3032C29.6092 53.3032 29.8898 53.0773 29.8898 52.7988C29.8898 52.5202 29.6092 52.2944 29.263 52.2944C28.9169 52.2944 28.6363 52.5202 28.6363 52.7988C28.6363 53.0773 28.9169 53.3032 29.263 53.3032Z" fill="#0B114D"/>
<path d="M36.5 62.3935C48.9097 62.3935 59.5616 60.2384 65.3579 68.9716C65.6495 68.6052 65.9339 68.2333 66.2109 67.856C60.6494 57.4655 49.5458 59.8483 36.5 59.8483C23.5893 59.8483 12.1766 57.3177 6.55566 67.5329C6.83354 67.9217 7.1196 68.3045 7.41387 68.6814C13.287 60.1032 24.2152 62.3935 36.5 62.3935Z" fill="#0B114D"/>
<path d="M54.8616 16.0056H54.9076L55.7353 61.384H53.9879L54.8616 16.0056Z" fill="#0B114D"/>
<path d="M57.9096 40.723L57.524 40.0226L54.7568 41.4156L55.1424 42.1159L57.9096 40.723Z" fill="#0B114D"/>
<path d="M52.118 59.4188C52.118 59.4188 52.1887 58.0023 53.6382 58.1669Z" fill="#3F3D56"/>
<path d="M51.7085 58.0708C52.1092 58.0708 52.434 57.7603 52.434 57.3772C52.434 56.9941 52.1092 56.6836 51.7085 56.6836C51.3079 56.6836 50.9831 56.9941 50.9831 57.3772C50.9831 57.7603 51.3079 58.0708 51.7085 58.0708Z" fill="#00EBA9"/>
<path d="M51.7953 58.5452H51.5905V59.9157H51.7953V58.5452Z" fill="#3F3D56"/>
<path d="M61.6398 62.0619C61.6398 62.0619 61.7105 60.6454 63.1599 60.81Z" fill="#3F3D56"/>
<path d="M61.2303 60.7139C61.6309 60.7139 61.9557 60.4034 61.9557 60.0203C61.9557 59.6373 61.6309 59.3267 61.2303 59.3267C60.8296 59.3267 60.5049 59.6373 60.5049 60.0203C60.5049 60.4034 60.8296 60.7139 61.2303 60.7139Z" fill="#00EBA9"/>
<path d="M61.317 61.1883H61.1122V62.5588H61.317V61.1883Z" fill="#3F3D56"/>
<path d="M10.7548 62.6493C10.7548 62.6493 10.8255 61.2328 12.2749 61.3974Z" fill="#3F3D56"/>
<path d="M10.3453 61.3013C10.7459 61.3013 11.0707 60.9907 11.0707 60.6077C11.0707 60.2246 10.7459 59.9141 10.3453 59.9141C9.94465 59.9141 9.61987 60.2246 9.61987 60.6077C9.61987 60.9907 9.94465 61.3013 10.3453 61.3013Z" fill="#00EBA9"/>
<path d="M10.432 61.7757H10.2272V63.1462H10.432V61.7757Z" fill="#3F3D56"/>
<path d="M57.8516 60.3977C57.8516 60.3977 57.9223 58.9812 59.3717 59.1459Z" fill="#3F3D56"/>
<path d="M57.4421 59.0497C57.8427 59.0497 58.1675 58.7392 58.1675 58.3561C58.1675 57.9731 57.8427 57.6625 57.4421 57.6625C57.0414 57.6625 56.7166 57.9731 56.7166 58.3561C56.7166 58.7392 57.0414 59.0497 57.4421 59.0497Z" fill="#00EBA9"/>
<path d="M57.5288 59.5241H57.324V60.8946H57.5288V59.5241Z" fill="#3F3D56"/>
<path d="M32.9355 27.8522L33.878 27.1314C33.1458 27.0542 32.845 27.436 32.7218 27.7382C32.1498 27.5111 31.5271 27.8087 31.5271 27.8087L33.4129 28.4633C33.3178 28.2203 33.1522 28.0083 32.9355 27.8522V27.8522Z" fill="#0B114D"/>
<path d="M17.4755 34.1174L18.418 33.3966C17.6858 33.3194 17.3849 33.7012 17.2618 34.0034C16.6898 33.7763 16.0671 34.0739 16.0671 34.0739L17.9529 34.7285C17.8578 34.4856 17.6921 34.2736 17.4755 34.1174Z" fill="#0B114D"/>
<path opacity="0.2" d="M49.1957 52.5063C49.1979 54.0812 48.8587 55.6395 48.1995 57.0828L26.968 46.9097L25.3534 46.1432L27.5414 46.0286L46.504 45.0379C48.309 47.0428 49.1957 49.6526 49.1957 52.5063Z" fill="#0B114D"/>
<path d="M51.7553 46.1432H21.2447V43.7937L36.3976 37.7244L51.7553 43.7937V46.1432Z" fill="#0B114D"/>
</svg>
