<svg width="354" height="114" viewBox="0 0 354 114" fill="none" xmlns="http://www.w3.org/2000/svg">
<path d="M112.175 97C110.567 94.144 108.827 91.324 106.955 88.54C105.083 85.756 103.091 83.128 100.979 80.656V97H95.4347V72.052H100.007C100.799 72.844 101.675 73.816 102.635 74.968C103.595 76.12 104.567 77.356 105.551 78.676C106.559 79.972 107.555 81.328 108.539 82.744C109.523 84.136 110.447 85.48 111.311 86.776V72.052H116.891V97H112.175ZM129.522 93.256C130.05 93.256 130.554 93.244 131.034 93.22C131.514 93.196 131.898 93.16 132.186 93.112V89.044C131.97 88.996 131.646 88.948 131.214 88.9C130.782 88.852 130.386 88.828 130.026 88.828C129.522 88.828 129.042 88.864 128.586 88.936C128.154 88.984 127.77 89.092 127.434 89.26C127.098 89.428 126.834 89.656 126.642 89.944C126.45 90.232 126.354 90.592 126.354 91.024C126.354 91.864 126.63 92.452 127.182 92.788C127.758 93.1 128.538 93.256 129.522 93.256ZM129.09 77.56C130.674 77.56 131.994 77.74 133.05 78.1C134.106 78.46 134.946 78.976 135.57 79.648C136.218 80.32 136.674 81.136 136.938 82.096C137.202 83.056 137.334 84.124 137.334 85.3V96.46C136.566 96.628 135.498 96.82 134.13 97.036C132.762 97.276 131.106 97.396 129.162 97.396C127.938 97.396 126.822 97.288 125.814 97.072C124.83 96.856 123.978 96.508 123.258 96.028C122.538 95.524 121.986 94.876 121.602 94.084C121.218 93.292 121.026 92.32 121.026 91.168C121.026 90.064 121.242 89.128 121.674 88.36C122.13 87.592 122.73 86.98 123.474 86.524C124.218 86.068 125.07 85.744 126.03 85.552C126.99 85.336 127.986 85.228 129.018 85.228C129.714 85.228 130.326 85.264 130.854 85.336C131.406 85.384 131.85 85.456 132.186 85.552V85.048C132.186 84.136 131.91 83.404 131.358 82.852C130.806 82.3 129.846 82.024 128.478 82.024C127.566 82.024 126.666 82.096 125.778 82.24C124.89 82.36 124.122 82.54 123.474 82.78L122.79 78.46C123.102 78.364 123.486 78.268 123.942 78.172C124.422 78.052 124.938 77.956 125.49 77.884C126.042 77.788 126.618 77.716 127.218 77.668C127.842 77.596 128.466 77.56 129.09 77.56ZM142.004 73.348L147.368 72.484V78.064H153.812V82.528H147.368V89.188C147.368 90.316 147.56 91.216 147.944 91.888C148.352 92.56 149.156 92.896 150.356 92.896C150.932 92.896 151.52 92.848 152.12 92.752C152.744 92.632 153.308 92.476 153.812 92.284L154.568 96.46C153.92 96.724 153.2 96.952 152.408 97.144C151.616 97.336 150.644 97.432 149.492 97.432C148.028 97.432 146.816 97.24 145.856 96.856C144.896 96.448 144.128 95.896 143.552 95.2C142.976 94.48 142.568 93.616 142.328 92.608C142.112 91.6 142.004 90.484 142.004 89.26V73.348ZM174.344 96.352C173.432 96.616 172.256 96.856 170.816 97.072C169.376 97.312 167.864 97.432 166.28 97.432C164.672 97.432 163.328 97.216 162.248 96.784C161.192 96.352 160.352 95.752 159.728 94.984C159.104 94.192 158.66 93.256 158.396 92.176C158.132 91.096 158 89.908 158 88.612V78.064H163.364V87.964C163.364 89.692 163.592 90.94 164.048 91.708C164.504 92.476 165.356 92.86 166.604 92.86C166.988 92.86 167.396 92.848 167.828 92.824C168.26 92.776 168.644 92.728 168.98 92.68V78.064H174.344V96.352ZM190.791 82.816C190.311 82.696 189.747 82.576 189.099 82.456C188.451 82.312 187.755 82.24 187.011 82.24C186.675 82.24 186.267 82.276 185.787 82.348C185.331 82.396 184.983 82.456 184.743 82.528V97H179.379V79.072C180.339 78.736 181.467 78.424 182.763 78.136C184.083 77.824 185.547 77.668 187.155 77.668C187.443 77.668 187.791 77.692 188.199 77.74C188.607 77.764 189.015 77.812 189.423 77.884C189.831 77.932 190.239 78.004 190.647 78.1C191.055 78.172 191.403 78.268 191.691 78.388L190.791 82.816Z" fill="#0B114D"/>
<path d="M211.631 97C211.367 96.136 211.067 95.248 210.731 94.336C210.419 93.424 210.107 92.512 209.795 91.6H200.075C199.763 92.512 199.439 93.424 199.103 94.336C198.791 95.248 198.503 96.136 198.239 97H192.407C193.343 94.312 194.231 91.828 195.071 89.548C195.911 87.268 196.727 85.12 197.519 83.104C198.335 81.088 199.127 79.18 199.895 77.38C200.687 75.556 201.503 73.78 202.343 72.052H207.707C208.523 73.78 209.327 75.556 210.119 77.38C210.911 79.18 211.703 81.088 212.495 83.104C213.311 85.12 214.139 87.268 214.979 89.548C215.819 91.828 216.707 94.312 217.643 97H211.631ZM204.899 77.704C204.779 78.064 204.599 78.556 204.359 79.18C204.119 79.804 203.843 80.524 203.531 81.34C203.219 82.156 202.871 83.056 202.487 84.04C202.127 85.024 201.755 86.056 201.371 87.136H208.463C208.079 86.056 207.707 85.024 207.347 84.04C206.987 83.056 206.639 82.156 206.303 81.34C205.991 80.524 205.715 79.804 205.475 79.18C205.235 78.556 205.043 78.064 204.899 77.704ZM232.644 87.676C232.644 86.02 232.272 84.7 231.528 83.716C230.784 82.708 229.68 82.204 228.216 82.204C227.736 82.204 227.292 82.228 226.884 82.276C226.476 82.3 226.14 82.336 225.876 82.384V92.068C226.212 92.284 226.644 92.464 227.172 92.608C227.724 92.752 228.276 92.824 228.828 92.824C231.372 92.824 232.644 91.108 232.644 87.676ZM238.116 87.532C238.116 88.996 237.936 90.328 237.576 91.528C237.216 92.728 236.688 93.76 235.992 94.624C235.296 95.488 234.432 96.16 233.4 96.64C232.368 97.12 231.18 97.36 229.836 97.36C229.092 97.36 228.396 97.288 227.748 97.144C227.1 97 226.476 96.796 225.876 96.532V103.66H220.512V78.712C220.992 78.568 221.544 78.436 222.168 78.316C222.792 78.172 223.44 78.052 224.112 77.956C224.808 77.86 225.504 77.788 226.2 77.74C226.92 77.668 227.604 77.632 228.252 77.632C229.812 77.632 231.204 77.872 232.428 78.352C233.652 78.808 234.684 79.468 235.524 80.332C236.364 81.172 237 82.204 237.432 83.428C237.888 84.652 238.116 86.02 238.116 87.532ZM254.371 87.676C254.371 86.02 253.999 84.7 253.255 83.716C252.511 82.708 251.407 82.204 249.943 82.204C249.463 82.204 249.019 82.228 248.611 82.276C248.203 82.3 247.867 82.336 247.603 82.384V92.068C247.939 92.284 248.371 92.464 248.899 92.608C249.451 92.752 250.003 92.824 250.555 92.824C253.099 92.824 254.371 91.108 254.371 87.676ZM259.843 87.532C259.843 88.996 259.663 90.328 259.303 91.528C258.943 92.728 258.415 93.76 257.719 94.624C257.023 95.488 256.159 96.16 255.127 96.64C254.095 97.12 252.907 97.36 251.563 97.36C250.819 97.36 250.123 97.288 249.475 97.144C248.827 97 248.203 96.796 247.603 96.532V103.66H242.239V78.712C242.719 78.568 243.271 78.436 243.895 78.316C244.519 78.172 245.167 78.052 245.839 77.956C246.535 77.86 247.231 77.788 247.927 77.74C248.647 77.668 249.331 77.632 249.979 77.632C251.539 77.632 252.931 77.872 254.155 78.352C255.379 78.808 256.411 79.468 257.251 80.332C258.091 81.172 258.727 82.204 259.159 83.428C259.615 84.652 259.843 86.02 259.843 87.532Z" fill="#EE3400"/>
<path d="M218.427 56.4435C218.579 56.8564 218.755 57.2609 218.953 57.6554V57.6564C219.114 57.9775 219.289 58.2904 219.477 58.5952H241.492V58.6373C241.692 58.3192 241.875 57.9915 242.043 57.6545C242.242 57.2605 242.417 56.8562 242.569 56.4435H218.427ZM218.982 57.6427V57.4469H242.017V57.6427H218.982ZM220.698 60.2408H240.298C240.7 59.7838 241.067 59.2992 241.395 58.791H219.601C219.929 59.2992 220.296 59.7838 220.698 60.2408Z" fill="#0B114D"/>
<path d="M242.913 55.3452C242.834 55.6516 242.742 55.9521 242.639 56.2477H218.357C218.254 55.9521 218.162 55.6516 218.083 55.3452H242.913Z" fill="#3F3D56"/>
<path d="M242.928 55.2874V55.1494H218.067V55.2874C217.98 54.9467 217.908 54.5999 217.851 54.2468H243.144C243.088 54.5992 243.016 54.9461 242.928 55.2874Z" fill="#0B114D"/>
<path d="M217.806 52.9527V53.1485H243.268C243.249 53.4529 243.218 53.7534 243.174 54.051H217.822C217.779 53.7554 217.747 53.4558 217.729 53.1524C217.71 52.8959 217.702 52.6375 217.702 52.3761C217.702 52.1999 217.706 52.0246 217.713 51.8504V51.8484C217.731 51.4774 217.764 51.1113 217.814 50.7501V50.7491C217.857 50.4466 217.91 50.1477 217.974 49.8524H242.981V49.6742C243.065 50.0286 243.132 50.3888 243.181 50.7549H217.859V50.9507H243.207C243.241 51.2239 243.265 51.4993 243.279 51.777L243.282 51.8533H217.833V52.0491H243.289C243.293 52.1578 243.294 52.2664 243.294 52.3761C243.294 52.5699 243.289 52.7618 243.28 52.9527H217.806Z" fill="#0B114D"/>
<path d="M242.977 49.6566H218.019C218.092 49.3511 218.176 49.0503 218.272 48.754H242.72V48.7432C242.818 49.0428 242.903 49.3472 242.977 49.6566Z" fill="#3F3D56"/>
<path d="M242.658 48.5582H218.338C218.465 48.1862 218.61 47.8227 218.773 47.4677V47.6547H242.223V47.4687C242.386 47.823 242.531 48.1862 242.658 48.5582Z" fill="#0B114D"/>
<path d="M242.218 47.4589H218.777C218.918 47.1515 219.073 46.8506 219.241 46.5563H241.727V46.5074C241.906 46.8167 242.069 47.1339 242.218 47.4589Z" fill="#3F3D56"/>
<path d="M241.641 46.3605H219.353C220.468 44.473 222.088 42.9026 224.046 41.8098C226.004 40.7171 228.23 40.1413 230.497 40.1413C232.765 40.1413 234.991 40.7171 236.949 41.8098C238.907 42.9026 240.526 44.473 241.641 46.3605Z" fill="#3F3D56"/>
<path opacity="0.5" d="M218.067 55.2874C218.072 55.3069 218.077 55.3262 218.083 55.3451H218.067V55.2874Z" fill="black"/>
<path opacity="0.5" d="M242.929 55.2874V55.3451H242.913C242.919 55.3262 242.925 55.3069 242.929 55.2874Z" fill="black"/>
<path opacity="0.5" d="M243.295 52.9526V53.1484H243.268C243.27 53.1239 243.273 53.0995 243.274 53.075C243.276 53.0339 243.278 52.9938 243.28 52.9526H243.295Z" fill="black"/>
<path opacity="0.5" d="M243.294 51.8533V52.0491H243.289C243.288 51.9835 243.285 51.9189 243.282 51.8533H243.294Z" fill="black"/>
<path opacity="0.5" d="M242.981 49.6566V49.6742C242.98 49.6683 242.978 49.6624 242.977 49.6566H242.981Z" fill="black"/>
<path opacity="0.5" d="M218.773 47.4589H218.777C218.776 47.462 218.775 47.4649 218.773 47.4677V47.4589Z" fill="black"/>
<path opacity="0.5" d="M242.224 47.4589V47.4687C242.222 47.4653 242.22 47.462 242.218 47.4589H242.224Z" fill="black"/>
<path opacity="0.5" d="M240.917 45.2618H220.078V45.4576H240.917V45.2618Z" fill="black"/>
<path opacity="0.5" d="M240.108 44.1632H220.94V44.359H240.108V44.1632Z" fill="black"/>
<path opacity="0.5" d="M238.881 43.0646H222.115V43.2604H238.881V43.0646Z" fill="black"/>
<path opacity="0.5" d="M237.34 41.9654L223.395 41.9915L223.395 42.1872L237.34 42.1612L237.34 41.9654Z" fill="black"/>
<path d="M228.643 45.9474H222.532V58.8936H228.643V45.9474Z" fill="#E6E6E6"/>
<path d="M225.327 47.1664H225.586C225.967 47.1664 226.333 47.3112 226.602 47.5689C226.872 47.8267 227.024 48.1763 227.024 48.5408V50.487H223.89V48.5408C223.89 48.1763 224.041 47.8267 224.311 47.5689C224.58 47.3112 224.946 47.1664 225.327 47.1664Z" fill="#0B114D"/>
<path d="M236.504 45.8342C236.92 45.8342 237.318 45.992 237.612 46.273C237.906 46.5539 238.071 46.935 238.071 47.3323V49.7792H234.937V47.3323C234.937 46.935 235.102 46.5539 235.396 46.273C235.69 45.992 236.089 45.8342 236.504 45.8342Z" fill="#E6E6E6"/>
<path d="M242.458 50.8279C242.458 50.9447 242.451 51.0614 242.438 51.1775H230.498V50.5283H242.443C242.453 50.6276 242.458 50.7275 242.458 50.8279Z" fill="#E6E6E6"/>
<path d="M232.211 48.6364L232.327 48.4649C232.293 48.374 232.253 48.285 232.208 48.1984L232.133 48.2563L232.193 48.1685C232.136 48.0619 232.092 47.9948 232.092 47.9948C231.949 48.2181 231.844 48.4619 231.781 48.7168L231.93 48.9369L231.765 48.8096C231.759 48.8529 231.756 48.8964 231.756 48.94C231.756 49.3798 231.906 49.7364 232.092 49.7364C232.277 49.7364 232.427 49.3798 232.427 48.94C232.424 48.8001 232.398 48.6615 232.35 48.5291L232.211 48.6364Z" fill="#00EBA9"/>
<path d="M233.033 49.0177L233.242 48.9749C233.285 48.8873 233.322 48.7975 233.355 48.7059L233.259 48.6961L233.366 48.6742C233.405 48.5605 233.423 48.4829 233.423 48.4829C233.156 48.5442 232.902 48.6457 232.669 48.7835L232.612 49.0399L232.589 48.8384C232.553 48.865 232.519 48.8937 232.486 48.9245C232.161 49.2355 232.004 49.5892 232.135 49.7145C232.266 49.8398 232.636 49.6892 232.961 49.3782C233.062 49.2769 233.146 49.1614 233.211 49.0357L233.033 49.0177Z" fill="#00EBA9"/>
<path d="M233.109 50.7195C232.625 50.7491 232.097 50.7177 231.535 50.7195V49.4902C232.057 49.5601 232.587 49.5601 233.109 49.4902V50.7195Z" fill="#E6E6E6"/>
<path d="M240.098 48.6364L240.214 48.4649C240.18 48.374 240.14 48.285 240.095 48.1984L240.02 48.2563L240.079 48.1685C240.023 48.0619 239.978 47.9948 239.978 47.9948C239.835 48.2181 239.73 48.4619 239.668 48.7168L239.816 48.9369L239.652 48.8096C239.646 48.8529 239.643 48.8964 239.643 48.94C239.643 49.3798 239.793 49.7364 239.978 49.7364C240.163 49.7364 240.314 49.3798 240.314 48.94C240.31 48.8001 240.284 48.6615 240.237 48.5291L240.098 48.6364Z" fill="#00EBA9"/>
<path d="M240.919 49.0177L241.128 48.9749C241.171 48.8873 241.209 48.7975 241.241 48.7059L241.145 48.6961L241.252 48.6742C241.291 48.5605 241.309 48.4829 241.309 48.4829C241.043 48.5442 240.789 48.6457 240.556 48.7835L240.498 49.0399L240.476 48.8384C240.44 48.865 240.405 48.8937 240.373 48.9245C240.048 49.2355 239.89 49.5892 240.021 49.7145C240.152 49.8398 240.522 49.6892 240.847 49.3782C240.948 49.2769 241.033 49.1614 241.097 49.0357L240.919 49.0177Z" fill="#00EBA9"/>
<path d="M240.996 50.7195C240.511 50.7491 239.983 50.7177 239.422 50.7195V49.4902C239.944 49.5601 240.474 49.5601 240.996 49.4902V50.7195Z" fill="#E6E6E6"/>
<path d="M223.263 53.3032C223.609 53.3032 223.89 53.0773 223.89 52.7988C223.89 52.5202 223.609 52.2944 223.263 52.2944C222.917 52.2944 222.636 52.5202 222.636 52.7988C222.636 53.0773 222.917 53.3032 223.263 53.3032Z" fill="#0B114D"/>
<path d="M230.5 62.3935C242.91 62.3935 253.562 60.2384 259.358 68.9716C259.65 68.6052 259.934 68.2333 260.211 67.856C254.649 57.4655 243.546 59.8483 230.5 59.8483C217.589 59.8483 206.177 57.3177 200.556 67.5329C200.834 67.9217 201.12 68.3045 201.414 68.6814C207.287 60.1032 218.215 62.3935 230.5 62.3935Z" fill="#0B114D"/>
<path d="M248.862 16.0056H248.908L249.735 61.384H247.988L248.862 16.0056Z" fill="#0B114D"/>
<path d="M251.91 40.723L251.524 40.0226L248.757 41.4156L249.142 42.1159L251.91 40.723Z" fill="#0B114D"/>
<path d="M246.118 59.4188C246.118 59.4188 246.189 58.0023 247.638 58.1669L246.118 59.4188Z" fill="#3F3D56"/>
<path d="M245.709 58.0708C246.109 58.0708 246.434 57.7603 246.434 57.3772C246.434 56.9941 246.109 56.6836 245.709 56.6836C245.308 56.6836 244.983 56.9941 244.983 57.3772C244.983 57.7603 245.308 58.0708 245.709 58.0708Z" fill="#00EBA9"/>
<path d="M245.795 58.5452H245.591V59.9157H245.795V58.5452Z" fill="#3F3D56"/>
<path d="M255.64 62.0619C255.64 62.0619 255.711 60.6454 257.16 60.81L255.64 62.0619Z" fill="#3F3D56"/>
<path d="M255.23 60.7139C255.631 60.7139 255.956 60.4034 255.956 60.0203C255.956 59.6373 255.631 59.3267 255.23 59.3267C254.83 59.3267 254.505 59.6373 254.505 60.0203C254.505 60.4034 254.83 60.7139 255.23 60.7139Z" fill="#00EBA9"/>
<path d="M255.317 61.1883H255.112V62.5588H255.317V61.1883Z" fill="#3F3D56"/>
<path d="M204.755 62.6493C204.755 62.6493 204.826 61.2328 206.275 61.3974L204.755 62.6493Z" fill="#3F3D56"/>
<path d="M204.345 61.3013C204.746 61.3013 205.071 60.9907 205.071 60.6077C205.071 60.2246 204.746 59.9141 204.345 59.9141C203.945 59.9141 203.62 60.2246 203.62 60.6077C203.62 60.9907 203.945 61.3013 204.345 61.3013Z" fill="#00EBA9"/>
<path d="M204.432 61.7757H204.227V63.1462H204.432V61.7757Z" fill="#3F3D56"/>
<path d="M251.852 60.3977C251.852 60.3977 251.922 58.9812 253.372 59.1459L251.852 60.3977Z" fill="#3F3D56"/>
<path d="M251.442 59.0497C251.843 59.0497 252.167 58.7392 252.167 58.3561C252.167 57.9731 251.843 57.6625 251.442 57.6625C251.041 57.6625 250.717 57.9731 250.717 58.3561C250.717 58.7392 251.041 59.0497 251.442 59.0497Z" fill="#00EBA9"/>
<path d="M251.529 59.5241H251.324V60.8946H251.529V59.5241Z" fill="#3F3D56"/>
<path d="M226.935 27.8522L227.878 27.1314C227.146 27.0542 226.845 27.436 226.722 27.7382C226.15 27.5111 225.527 27.8087 225.527 27.8087L227.413 28.4633C227.318 28.2203 227.152 28.0083 226.935 27.8522Z" fill="#0B114D"/>
<path d="M211.475 34.1174L212.418 33.3966C211.686 33.3194 211.385 33.7012 211.262 34.0034C210.69 33.7763 210.067 34.0739 210.067 34.0739L211.953 34.7285C211.858 34.4856 211.692 34.2736 211.475 34.1174Z" fill="#0B114D"/>
<path opacity="0.2" d="M243.196 52.5063C243.198 54.0812 242.859 55.6395 242.199 57.0828L220.968 46.9097L219.353 46.1432L221.541 46.0286L240.504 45.0379C242.309 47.0428 243.196 49.6526 243.196 52.5063Z" fill="#0B114D"/>
<path d="M245.755 46.1432H215.245V43.7937L230.398 37.7244L245.755 43.7937V46.1432Z" fill="#0B114D"/>
</svg>
