<svg width="300" height="300" viewBox="0 0 354 312" fill="none" xmlns="http://www.w3.org/2000/svg">
<path d="M77.4171 210.934H83.0331V235.882H77.4171V210.934ZM88.8077 235.882V210.934H105.512V215.65H94.4237V220.87H104.288V225.586H94.4237V235.882H88.8077ZM116.968 210.646C120.688 210.646 123.544 211.306 125.536 212.626C127.528 213.922 128.524 216.058 128.524 219.034C128.524 222.034 127.516 224.206 125.5 225.55C123.484 226.87 120.604 227.53 116.86 227.53H115.096V235.882H109.48V211.294C110.704 211.054 112 210.886 113.368 210.79C114.736 210.694 115.936 210.646 116.968 210.646ZM117.328 215.434C116.92 215.434 116.512 215.446 116.104 215.47C115.72 215.494 115.384 215.518 115.096 215.542V222.742H116.86C118.804 222.742 120.268 222.478 121.252 221.95C122.236 221.422 122.728 220.438 122.728 218.998C122.728 218.302 122.596 217.726 122.332 217.27C122.092 216.814 121.732 216.454 121.252 216.19C120.796 215.902 120.232 215.71 119.56 215.614C118.888 215.494 118.144 215.434 117.328 215.434ZM139.848 236.242C138.288 236.218 137.016 236.05 136.032 235.738C135.072 235.426 134.304 234.994 133.728 234.442C133.176 233.866 132.792 233.182 132.576 232.39C132.384 231.574 132.288 230.662 132.288 229.654V208.81L137.652 207.946V228.574C137.652 229.054 137.688 229.486 137.76 229.87C137.832 230.254 137.964 230.578 138.156 230.842C138.372 231.106 138.672 231.322 139.056 231.49C139.44 231.658 139.956 231.766 140.604 231.814L139.848 236.242ZM151.442 232.138C151.97 232.138 152.474 232.126 152.954 232.102C153.434 232.078 153.818 232.042 154.106 231.994V227.926C153.89 227.878 153.566 227.83 153.134 227.782C152.702 227.734 152.306 227.71 151.946 227.71C151.442 227.71 150.962 227.746 150.506 227.818C150.074 227.866 149.69 227.974 149.354 228.142C149.018 228.31 148.754 228.538 148.562 228.826C148.37 229.114 148.274 229.474 148.274 229.906C148.274 230.746 148.55 231.334 149.102 231.67C149.678 231.982 150.458 232.138 151.442 232.138ZM151.01 216.442C152.594 216.442 153.914 216.622 154.97 216.982C156.026 217.342 156.866 217.858 157.49 218.53C158.138 219.202 158.594 220.018 158.858 220.978C159.122 221.938 159.254 223.006 159.254 224.182V235.342C158.486 235.51 157.418 235.702 156.05 235.918C154.682 236.158 153.026 236.278 151.082 236.278C149.858 236.278 148.742 236.17 147.734 235.954C146.75 235.738 145.898 235.39 145.178 234.91C144.458 234.406 143.906 233.758 143.522 232.966C143.138 232.174 142.946 231.202 142.946 230.05C142.946 228.946 143.162 228.01 143.594 227.242C144.05 226.474 144.65 225.862 145.394 225.406C146.138 224.95 146.99 224.626 147.95 224.434C148.91 224.218 149.906 224.11 150.938 224.11C151.634 224.11 152.246 224.146 152.774 224.218C153.326 224.266 153.77 224.338 154.106 224.434V223.93C154.106 223.018 153.83 222.286 153.278 221.734C152.726 221.182 151.766 220.906 150.398 220.906C149.486 220.906 148.586 220.978 147.698 221.122C146.81 221.242 146.042 221.422 145.394 221.662L144.71 217.342C145.022 217.246 145.406 217.15 145.862 217.054C146.342 216.934 146.858 216.838 147.41 216.766C147.962 216.67 148.538 216.598 149.138 216.55C149.762 216.478 150.386 216.442 151.01 216.442ZM164.104 217.594C165.016 217.33 166.192 217.09 167.632 216.874C169.072 216.634 170.584 216.514 172.168 216.514C173.776 216.514 175.108 216.73 176.164 217.162C177.244 217.57 178.096 218.158 178.72 218.926C179.344 219.694 179.788 220.606 180.052 221.662C180.316 222.718 180.448 223.894 180.448 225.19V235.882H175.084V225.838C175.084 224.11 174.856 222.886 174.4 222.166C173.944 221.446 173.092 221.086 171.844 221.086C171.46 221.086 171.052 221.11 170.62 221.158C170.188 221.182 169.804 221.218 169.468 221.266V235.882H164.104V217.594Z" fill="#0B114D"/>
<path d="M210.98 231.058V235.882H194.312V210.934H199.928V231.058H210.98ZM213.337 226.558C213.337 224.878 213.589 223.414 214.093 222.166C214.621 220.894 215.305 219.838 216.145 218.998C216.985 218.158 217.945 217.522 219.025 217.09C220.129 216.658 221.257 216.442 222.409 216.442C225.097 216.442 227.221 217.27 228.781 218.926C230.341 220.558 231.121 222.97 231.121 226.162C231.121 226.474 231.109 226.822 231.085 227.206C231.061 227.566 231.037 227.89 231.013 228.178H218.845C218.965 229.282 219.481 230.158 220.393 230.806C221.305 231.454 222.529 231.778 224.065 231.778C225.049 231.778 226.009 231.694 226.945 231.526C227.905 231.334 228.685 231.106 229.285 230.842L230.005 235.198C229.717 235.342 229.333 235.486 228.853 235.63C228.373 235.774 227.833 235.894 227.233 235.99C226.657 236.11 226.033 236.206 225.361 236.278C224.689 236.35 224.017 236.386 223.345 236.386C221.641 236.386 220.153 236.134 218.881 235.63C217.633 235.126 216.589 234.442 215.749 233.578C214.933 232.69 214.321 231.646 213.913 230.446C213.529 229.246 213.337 227.95 213.337 226.558ZM225.937 224.506C225.913 224.05 225.829 223.606 225.685 223.174C225.565 222.742 225.361 222.358 225.073 222.022C224.809 221.686 224.461 221.41 224.029 221.194C223.621 220.978 223.105 220.87 222.481 220.87C221.881 220.87 221.365 220.978 220.933 221.194C220.501 221.386 220.141 221.65 219.853 221.986C219.565 222.322 219.337 222.718 219.169 223.174C219.025 223.606 218.917 224.05 218.845 224.506H225.937ZM240.624 235.882H235.26V216.946H240.624V235.882ZM241.128 211.474C241.128 212.458 240.804 213.238 240.156 213.814C239.532 214.366 238.788 214.642 237.924 214.642C237.06 214.642 236.304 214.366 235.656 213.814C235.032 213.238 234.72 212.458 234.72 211.474C234.72 210.49 235.032 209.722 235.656 209.17C236.304 208.594 237.06 208.306 237.924 208.306C238.788 208.306 239.532 208.594 240.156 209.17C240.804 209.722 241.128 210.49 241.128 211.474ZM245.486 212.23L250.85 211.366V216.946H257.294V221.41H250.85V228.07C250.85 229.198 251.042 230.098 251.426 230.77C251.834 231.442 252.638 231.778 253.838 231.778C254.414 231.778 255.002 231.73 255.602 231.634C256.226 231.514 256.79 231.358 257.294 231.166L258.05 235.342C257.402 235.606 256.682 235.834 255.89 236.026C255.098 236.218 254.126 236.314 252.974 236.314C251.51 236.314 250.298 236.122 249.338 235.738C248.378 235.33 247.61 234.778 247.034 234.082C246.458 233.362 246.05 232.498 245.81 231.49C245.594 230.482 245.486 229.366 245.486 228.142V212.23ZM260.059 226.558C260.059 224.878 260.311 223.414 260.815 222.166C261.343 220.894 262.027 219.838 262.867 218.998C263.707 218.158 264.667 217.522 265.747 217.09C266.851 216.658 267.979 216.442 269.131 216.442C271.819 216.442 273.943 217.27 275.503 218.926C277.063 220.558 277.843 222.97 277.843 226.162C277.843 226.474 277.831 226.822 277.807 227.206C277.783 227.566 277.759 227.89 277.735 228.178H265.567C265.687 229.282 266.203 230.158 267.115 230.806C268.027 231.454 269.251 231.778 270.787 231.778C271.771 231.778 272.731 231.694 273.667 231.526C274.627 231.334 275.407 231.106 276.007 230.842L276.727 235.198C276.439 235.342 276.055 235.486 275.575 235.63C275.095 235.774 274.555 235.894 273.955 235.99C273.379 236.11 272.755 236.206 272.083 236.278C271.411 236.35 270.739 236.386 270.067 236.386C268.363 236.386 266.875 236.134 265.603 235.63C264.355 235.126 263.311 234.442 262.471 233.578C261.655 232.69 261.043 231.646 260.635 230.446C260.251 229.246 260.059 227.95 260.059 226.558ZM272.659 224.506C272.635 224.05 272.551 223.606 272.407 223.174C272.287 222.742 272.083 222.358 271.795 222.022C271.531 221.686 271.183 221.41 270.751 221.194C270.343 220.978 269.827 220.87 269.203 220.87C268.603 220.87 268.087 220.978 267.655 221.194C267.223 221.386 266.863 221.65 266.575 221.986C266.287 222.322 266.059 222.718 265.891 223.174C265.747 223.606 265.639 224.05 265.567 224.506H272.659Z" fill="#EE3400"/>
<path d="M147.085 137.289C147.469 138.293 147.911 139.277 148.411 140.236V140.239C148.816 141.02 149.256 141.781 149.732 142.522H205.195V142.625C205.698 141.851 206.161 141.054 206.583 140.234C207.084 139.276 207.526 138.292 207.909 137.289H147.085ZM148.483 140.205V139.729H206.518V140.205H148.483ZM152.807 146.525H202.187C203.2 145.413 204.124 144.235 204.95 142.998H150.044C150.87 144.235 151.794 145.413 152.807 146.525Z" fill="#0B114D"/>
<path d="M208.775 134.617C208.577 135.362 208.345 136.093 208.084 136.812H146.91C146.649 136.093 146.417 135.362 146.219 134.617H208.775Z" fill="#0B114D"/>
<path d="M208.814 134.476V134.141H146.18V134.476C145.961 133.648 145.779 132.804 145.636 131.945H209.358C209.216 132.803 209.035 133.646 208.814 134.476Z" fill="#0B114D"/>
<path d="M145.522 128.798V129.274H209.67C209.621 130.014 209.544 130.745 209.433 131.469H145.561C145.453 130.75 145.373 130.022 145.326 129.283C145.28 128.66 145.259 128.031 145.259 127.395C145.259 126.967 145.269 126.54 145.288 126.117V126.112C145.331 125.209 145.416 124.319 145.54 123.44V123.438C145.649 122.702 145.784 121.975 145.945 121.257H208.946V120.823C209.157 121.685 209.326 122.562 209.451 123.452H145.654V123.928H209.516C209.601 124.593 209.661 125.263 209.696 125.938L209.704 126.124H145.589V126.6H209.722C209.732 126.864 209.735 127.128 209.735 127.395C209.735 127.867 209.722 128.333 209.699 128.798H145.522Z" fill="#0B114D"/>
<path d="M208.935 120.781H146.059C146.242 120.038 146.454 119.306 146.696 118.585H208.288V118.559C208.535 119.288 208.75 120.028 208.935 120.781Z" fill="#0B114D"/>
<path d="M208.133 118.109H146.861C147.181 117.204 147.546 116.32 147.957 115.456V115.911H207.037V115.459C207.447 116.321 207.812 117.204 208.133 118.109Z" fill="#0B114D"/>
<path d="M207.024 115.435H147.968C148.324 114.687 148.713 113.956 149.136 113.24H205.788V113.121C206.237 113.873 206.649 114.644 207.024 115.435Z" fill="#3F3D56"/>
<path d="M205.572 112.763H149.42C152.229 108.172 156.309 104.353 161.242 101.695C166.175 99.037 171.784 97.6364 177.496 97.6364C183.208 97.6364 188.817 99.037 193.75 101.695C198.683 104.353 202.763 108.172 205.572 112.763Z" fill="#3F3D56"/>
<path opacity="0.5" d="M146.18 134.477C146.19 134.524 146.202 134.57 146.218 134.616H146.18V134.477Z" fill="black"/>
<path opacity="0.5" d="M208.813 134.477V134.616H208.775C208.79 134.57 208.803 134.524 208.813 134.477Z" fill="black"/>
<path opacity="0.5" d="M209.735 128.798V129.274H209.67C209.676 129.214 209.681 129.155 209.683 129.095C209.688 128.995 209.693 128.898 209.699 128.798H209.735Z" fill="black"/>
<path opacity="0.5" d="M209.734 126.124V126.6H209.722C209.719 126.44 209.712 126.283 209.704 126.124H209.734Z" fill="black"/>
<path opacity="0.5" d="M208.946 120.781V120.823C208.943 120.809 208.938 120.795 208.935 120.781H208.946Z" fill="black"/>
<path opacity="0.5" d="M147.957 115.435H147.967C147.964 115.442 147.961 115.449 147.957 115.456V115.435Z" fill="black"/>
<path opacity="0.5" d="M207.036 115.435V115.458C207.032 115.45 207.028 115.442 207.024 115.435H207.036Z" fill="black"/>
<path opacity="0.5" d="M203.748 110.091H151.246V110.567H203.748V110.091Z" fill="black"/>
<path opacity="0.5" d="M201.708 107.419H153.417V107.895H201.708V107.419Z" fill="black"/>
<path opacity="0.5" d="M198.616 104.747H156.378V105.223H198.616V104.747Z" fill="black"/>
<path opacity="0.5" d="M194.734 102.073L159.601 102.137L159.602 102.613L194.735 102.549L194.734 102.073Z" fill="black"/>
<path d="M172.823 111.759H157.427V143.248H172.823V111.759Z" fill="#E6E6E6"/>
<path d="M164.47 114.724H165.122C166.082 114.724 167.004 115.076 167.683 115.703C168.362 116.33 168.744 117.18 168.744 118.067V122.8H160.849V118.067C160.849 117.18 161.23 116.33 161.909 115.703C162.588 115.076 163.51 114.724 164.47 114.724Z" fill="#0B114D"/>
<path d="M192.629 111.483C193.676 111.483 194.68 111.867 195.42 112.55C196.161 113.234 196.576 114.161 196.576 115.127V121.079H188.681V115.127C188.681 114.161 189.097 113.234 189.838 112.55C190.578 111.867 191.582 111.483 192.629 111.483Z" fill="#E6E6E6"/>
<path d="M207.629 123.63C207.629 123.914 207.612 124.197 207.578 124.48H177.497V122.901H207.591C207.616 123.142 207.629 123.385 207.629 123.63Z" fill="#E6E6E6"/>
<path d="M181.814 118.299L182.106 117.882C182.019 117.661 181.919 117.444 181.806 117.234L181.617 117.375L181.767 117.161C181.624 116.902 181.512 116.738 181.512 116.738C181.152 117.282 180.887 117.875 180.729 118.495L181.105 119.03L180.689 118.72C180.675 118.826 180.667 118.932 180.667 119.038C180.667 120.107 181.045 120.975 181.512 120.975C181.979 120.975 182.357 120.107 182.357 119.038C182.348 118.697 182.283 118.36 182.164 118.038L181.814 118.299Z" fill="#00EBA9"/>
<path d="M183.884 119.227L184.41 119.122C184.518 118.909 184.613 118.691 184.694 118.468L184.453 118.444L184.722 118.391C184.82 118.115 184.866 117.926 184.866 117.926C184.195 118.075 183.554 118.322 182.967 118.657L182.822 119.281L182.766 118.79C182.675 118.855 182.588 118.925 182.507 119C181.687 119.756 181.29 120.617 181.621 120.921C181.951 121.226 182.883 120.86 183.702 120.103C183.957 119.857 184.169 119.576 184.331 119.27L183.884 119.227Z" fill="#00EBA9"/>
<path d="M184.076 123.366C182.855 123.438 181.525 123.362 180.111 123.366V120.376C181.426 120.546 182.761 120.546 184.076 120.376V123.366Z" fill="#E6E6E6"/>
<path d="M201.683 118.299L201.975 117.882C201.888 117.661 201.788 117.444 201.675 117.234L201.486 117.375L201.636 117.161C201.493 116.902 201.381 116.738 201.381 116.738C201.021 117.282 200.757 117.875 200.598 118.495L200.974 119.03L200.558 118.72C200.544 118.826 200.536 118.932 200.536 119.038C200.536 120.107 200.914 120.975 201.381 120.975C201.848 120.975 202.226 120.107 202.226 119.038C202.217 118.697 202.152 118.36 202.033 118.038L201.683 118.299Z" fill="#00EBA9"/>
<path d="M203.753 119.227L204.279 119.122C204.387 118.909 204.482 118.691 204.563 118.468L204.322 118.444L204.591 118.391C204.689 118.115 204.735 117.926 204.735 117.926C204.064 118.075 203.423 118.322 202.836 118.657L202.691 119.281L202.635 118.79C202.544 118.855 202.457 118.925 202.376 119C201.556 119.756 201.159 120.617 201.49 120.921C201.82 121.226 202.752 120.86 203.571 120.103C203.826 119.857 204.038 119.576 204.2 119.27L203.753 119.227Z" fill="#00EBA9"/>
<path d="M203.945 123.366C202.724 123.438 201.394 123.362 199.98 123.366V120.376C201.295 120.546 202.63 120.546 203.945 120.376V123.366Z" fill="#E6E6E6"/>
<path d="M159.27 129.65C160.142 129.65 160.849 129.101 160.849 128.423C160.849 127.746 160.142 127.197 159.27 127.197C158.398 127.197 157.691 127.746 157.691 128.423C157.691 129.101 158.398 129.65 159.27 129.65Z" fill="#0B114D"/>
<path d="M252.355 165.285C235.844 187.053 208.473 201.287 177.502 201.287C146.159 201.287 118.505 186.71 102.061 164.5C116.222 139.653 144.975 145.808 177.502 145.808C210.369 145.808 238.343 140.013 252.355 165.285Z" fill="#29BB9D"/>
<path d="M177.502 151.761C208.767 151.761 235.603 146.519 250.206 167.761C250.941 166.87 251.657 165.965 252.355 165.047C238.343 139.774 210.369 145.57 177.502 145.57C144.975 145.57 116.222 139.415 102.061 164.261C102.761 165.207 103.482 166.138 104.223 167.055C119.02 146.19 146.552 151.761 177.502 151.761Z" fill="#0B114D"/>
<path d="M177.502 201.882C155.085 201.866 133.448 194.282 116.669 180.559C99.8902 166.836 89.1283 147.921 86.4115 127.38C83.6947 106.839 89.2107 86.0902 101.92 69.0437C114.629 51.9971 133.654 39.8302 155.409 34.8359C177.163 29.8417 200.146 32.365 220.024 41.9303C239.903 51.4956 255.305 67.4424 263.329 86.7652C271.352 106.088 271.441 127.452 263.581 146.832C255.72 166.212 240.453 182.268 220.655 191.976C207.365 198.486 192.548 201.887 177.502 201.882ZM177.502 32.8257C163.655 32.8315 149.991 35.7485 137.547 41.3555C125.102 46.9624 114.205 55.1121 105.682 65.186C97.158 75.26 91.2318 86.9937 88.3528 99.4969C85.4739 112 85.7176 124.944 89.0656 137.348C92.4136 149.751 98.7779 161.287 107.676 171.082C116.573 180.876 127.771 188.671 140.419 193.876C153.066 199.08 166.832 201.557 180.671 201.119C194.51 200.68 208.06 197.338 220.291 191.345C233.017 185.07 243.965 176.119 252.249 165.216C261.078 153.539 266.559 139.988 268.18 125.827C269.801 111.666 267.509 97.3566 261.519 84.2342C254.549 68.9845 242.859 55.9723 227.914 46.8276C212.969 37.6829 195.433 32.8122 177.502 32.8257Z" fill="#3F3D56"/>
<path d="M119.594 71.2802C133.199 71.2802 144.227 61.0995 144.227 48.5409C144.227 35.9823 133.199 25.8015 119.594 25.8015C105.989 25.8015 94.9601 35.9823 94.9601 48.5409C94.9601 61.0995 105.989 71.2802 119.594 71.2802Z" fill="#EE3400"/>
<path d="M223.646 77.8614C246.938 77.8614 265.82 60.4315 265.82 38.9307C265.82 17.4299 246.938 0 223.646 0C200.354 0 181.472 17.4299 181.472 38.9307C181.472 60.4315 200.354 77.8614 223.646 77.8614Z" fill="#29BB9D"/>
<path opacity="0.2" d="M255.018 12.928C258.951 21.4224 259.485 30.9313 256.523 39.7555C253.561 48.5796 247.297 56.1441 238.849 61.0971C230.401 66.0501 220.321 68.069 210.409 66.7929C200.498 65.5167 191.401 61.0288 184.743 54.1311C187.147 59.3208 190.743 63.9662 195.284 67.7454C199.825 71.5246 205.202 74.3473 211.042 76.0179C216.882 77.6884 223.046 78.1669 229.107 77.4202C235.167 76.6735 240.979 74.7194 246.14 71.6934C251.301 68.6674 255.688 64.6418 258.996 59.8954C262.304 55.1491 264.455 49.7955 265.3 44.2057C266.144 38.6158 265.662 32.9233 263.887 27.5226C262.111 22.1218 259.085 17.142 255.018 12.928Z" fill="black"/>
<path d="M223.762 38.9307H223.878L225.963 149.305H221.561L223.762 38.9307Z" fill="#0B114D"/>
<path d="M231.441 99.0513L230.469 97.3478L223.498 100.736L224.469 102.439L231.441 99.0513Z" fill="#0B114D"/>
<path d="M216.85 144.525C216.85 144.525 217.028 141.08 220.68 141.48L216.85 144.525Z" fill="#0B114D"/>
<path d="M215.818 141.247C216.827 141.247 217.646 140.491 217.646 139.56C217.646 138.628 216.827 137.872 215.818 137.872C214.809 137.872 213.991 138.628 213.991 139.56C213.991 140.491 214.809 141.247 215.818 141.247Z" fill="#00EBA9"/>
<path d="M216.037 142.4H215.521V145.734H216.037V142.4Z" fill="#0B114D"/>
<path d="M231.295 146.906C231.295 146.906 231.473 143.461 235.124 143.861L231.295 146.906Z" fill="#0B114D"/>
<path d="M230.263 143.628C231.272 143.628 232.091 142.872 232.091 141.941C232.091 141.009 231.272 140.254 230.263 140.254C229.254 140.254 228.435 141.009 228.435 141.941C228.435 142.872 229.254 143.628 230.263 143.628Z" fill="#00EBA9"/>
<path d="M230.481 144.782H229.966V148.115H230.481V144.782Z" fill="#0B114D"/>
<path d="M168.522 67.7454L170.896 65.9923C169.052 65.8044 168.294 66.7331 167.984 67.4682C166.542 66.9158 164.974 67.6397 164.974 67.6397L169.725 69.2319C169.485 68.6409 169.068 68.1253 168.522 67.7454Z" fill="#0B114D"/>
<path opacity="0.2" d="M209.487 127.712C209.493 131.543 208.638 135.333 206.977 138.843L153.488 114.099L149.42 112.235L154.932 111.956L202.706 109.547C207.253 114.423 209.487 120.771 209.487 127.712Z" fill="black"/>
<path d="M215.936 112.235H139.069V106.52L177.244 91.7576L215.936 106.52V112.235Z" fill="#0B114D"/>
<path d="M243.794 152.366C243.794 152.366 243.972 148.921 247.623 149.321L243.794 152.366Z" fill="#0B114D"/>
<path d="M242.762 149.087C243.771 149.087 244.589 148.332 244.589 147.4C244.589 146.469 243.771 145.713 242.762 145.713C241.752 145.713 240.934 146.469 240.934 147.4C240.934 148.332 241.752 149.087 242.762 149.087Z" fill="#00EBA9"/>
<path d="M242.98 150.241H242.464V153.575H242.98V150.241Z" fill="#0B114D"/>
<path d="M115.595 149.559C115.595 149.559 115.774 146.114 119.425 146.514L115.595 149.559Z" fill="#0B114D"/>
<path d="M114.564 146.281C115.573 146.281 116.391 145.525 116.391 144.594C116.391 143.662 115.573 142.907 114.564 142.907C113.554 142.907 112.736 143.662 112.736 144.594C112.736 145.525 113.554 146.281 114.564 146.281Z" fill="#00EBA9"/>
<path d="M114.782 147.435H114.266V150.768H114.782V147.435Z" fill="#0B114D"/>
<path d="M135.365 47.0638L137.739 45.3106C135.894 45.1228 135.137 46.0514 134.826 46.7865C133.385 46.2341 131.816 46.9581 131.816 46.9581L136.567 48.5502C136.328 47.9593 135.91 47.4436 135.365 47.0638Z" fill="#0B114D"/>
<path d="M132.527 83.1608L134.902 81.4076C133.057 81.2198 132.299 82.1485 131.989 82.8835C130.548 82.3311 128.979 83.0551 128.979 83.0551L133.73 84.6472C133.49 84.0563 133.073 83.5406 132.527 83.1608Z" fill="#0B114D"/>
</svg>
